<svg width="20" height="20" viewBox="0 0 20 20" fill="none" xmlns="http://www.w3.org/2000/svg">
<path d="M10.0947 12.2859L10.0947 13.4764" stroke="#6BA10F" stroke-width="0.952381" stroke-linecap="round" stroke-linejoin="round"/>
<path d="M2.95166 9.11133L3.07299 11.3838C3.20336 14.2518 3.26854 15.6858 4.18884 16.5652C5.10914 17.4447 6.54464 17.4447 9.41565 17.4447H10.7734C13.6444 17.4447 15.0799 17.4447 16.0002 16.5652C16.9205 15.6858 16.9857 14.2518 17.116 11.3838L17.2374 9.11133" stroke="#6BA10F" stroke-width="0.952381" stroke-linecap="round" stroke-linejoin="round"/>
<path d="M2.83072 8.6693C4.17936 11.2339 7.22121 12.2859 10.0949 12.2859C12.9685 12.2859 16.0103 11.2339 17.359 8.6693C18.0028 7.4451 17.5153 5.14307 15.9298 5.14307H4.25994C2.67441 5.14307 2.18694 7.4451 2.83072 8.6693Z" stroke="#6BA10F" stroke-width="0.952381"/>
<path d="M13.2691 5.14301L13.199 4.89772C12.8498 3.67547 12.6752 3.06434 12.2595 2.71479C11.8438 2.36523 11.2917 2.36523 10.1874 2.36523H10.0017C8.89738 2.36523 8.34522 2.36523 7.92952 2.71479C7.51383 3.06434 7.33922 3.67547 6.99 4.89772L6.91992 5.14301" stroke="#6BA10F" stroke-width="0.952381"/>
</svg>
