<svg width="20" height="20" viewBox="0 0 20 20" fill="none" xmlns="http://www.w3.org/2000/svg">
<g clip-path="url(#clip0_1_511)">
<path d="M17.5822 11.967C17.3201 11.967 17.1077 12.1794 17.1077 12.4414V16.654C17.1068 17.4397 16.4702 18.0765 15.6844 18.0773H2.37197C1.58618 18.0765 0.94957 17.4397 0.948643 16.654V4.29043C0.94957 3.50482 1.58618 2.86803 2.37197 2.8671H6.58452C6.84657 2.8671 7.05896 2.65471 7.05896 2.39266C7.05896 2.13079 6.84657 1.91821 6.58452 1.91821H2.37197C1.06244 1.9197 0.0012385 2.98089 -0.000244141 4.29043V16.6541C0.0012385 17.9637 1.06244 19.0249 2.37197 19.0264H15.6844C16.9939 19.0249 18.0551 17.9637 18.0566 16.6541V12.4414C18.0566 12.1794 17.8442 11.967 17.5822 11.967Z" fill="#6BA10F"/>
<path d="M17.8687 0.697614C17.0349 -0.136184 15.6831 -0.136184 14.8493 0.697614L6.38498 9.16198C6.32697 9.21999 6.28508 9.2919 6.26321 9.37085L5.15013 13.3894C5.10435 13.5541 5.15087 13.7305 5.2717 13.8516C5.39272 13.9724 5.56916 14.0189 5.73391 13.9733L9.75241 12.8601C9.83136 12.8382 9.90327 12.7963 9.96128 12.7383L18.4255 4.27373C19.258 3.43938 19.258 2.0887 18.4255 1.25434L17.8687 0.697614ZM7.41874 9.47037L14.3462 2.54275L16.5803 4.7769L9.65271 11.7045L7.41874 9.47037ZM6.97247 10.3659L8.75738 12.151L6.28842 12.835L6.97247 10.3659ZM17.7546 3.60284L17.2514 4.10601L15.0171 1.87168L15.5204 1.36851C15.9836 0.905368 16.7345 0.905368 17.1977 1.36851L17.7546 1.92524C18.217 2.38893 18.217 3.13933 17.7546 3.60284Z" fill="#6BA10F"/>
</g>
<defs>
<clipPath id="clip0_1_511">
<rect width="19.05" height="19.05" fill="white" transform="translate(-0.000244141)"/>
</clipPath>
</defs>
</svg>
