<svg width="20" height="20" viewBox="0 0 20 20" fill="none" xmlns="http://www.w3.org/2000/svg">
<g clipPath="url(#clip0_1_545)">
<path d="M9.52476 0C4.27267 0 -0.000244141 4.27291 -0.000244141 9.525C-0.000244141 14.7771 4.27267 19.05 9.52476 19.05C14.7768 19.05 19.0498 14.7771 19.0498 9.525C19.0498 4.27291 14.7768 0 9.52476 0ZM14.5002 15.7768C13.1332 16.868 11.4061 17.526 9.52476 17.526C5.11316 17.526 1.52376 13.9366 1.52376 9.525C1.52376 7.73316 2.11621 6.07695 3.11519 4.74193C3.24092 4.57352 3.47295 4.56095 3.62383 4.70764L14.5185 15.2667C14.6698 15.4134 14.6637 15.6454 14.5002 15.7768ZM16.0642 14.1168C15.9431 14.2886 15.7149 14.3043 15.5644 14.1576L4.70053 3.62864C4.54966 3.48196 4.55804 3.25374 4.72606 3.12725C6.06375 2.12103 7.72567 1.524 9.52476 1.524C13.9364 1.524 17.5258 5.1134 17.5258 9.525C17.5258 11.2342 16.9817 12.8165 16.0642 14.1168Z" fill="#6BA10F"/>
</g>
<defs>
<clipPath id="clip0_1_545">
<rect width="19.05" height="19.05" fill="white" transform="translate(-0.000244141)"/>
</clipPath>
</defs>
</svg>
