<svg width="20" height="20" viewBox="0 0 20 20" fill="none" xmlns="http://www.w3.org/2000/svg">
<g clip-path="url(#clip0_1_496)">
<path d="M17.0652 4.7624H14.684C14.4649 4.7624 14.2871 4.5846 14.2871 4.36553C14.2871 4.14645 14.4649 3.96865 14.684 3.96865H16.6684V1.98428C16.6684 1.7652 16.8462 1.5874 17.0652 1.5874C17.2843 1.5874 17.4621 1.7652 17.4621 1.98428V4.36553C17.4621 4.5846 17.2843 4.7624 17.0652 4.7624Z" fill="#6BA10F"/>
<path d="M9.52451 19.05C4.27227 19.05 -0.000488281 14.7772 -0.000488281 9.525C-0.000488281 4.27276 4.27227 0 9.52451 0C12.5408 0 15.4054 1.45256 17.1866 3.88541C17.316 4.06241 17.2779 4.31086 17.1009 4.44024C16.9238 4.56962 16.6746 4.53152 16.546 4.35451C14.9141 2.12487 12.2883 0.79375 9.52451 0.79375C4.71042 0.79375 0.793262 4.71091 0.793262 9.525C0.793262 14.3391 4.71042 18.2563 9.52451 18.2563C14.3386 18.2563 18.2558 14.3391 18.2558 9.525C18.2558 9.11543 18.2312 8.74474 18.1804 8.39073C18.1494 8.17404 18.3002 7.97322 18.5169 7.94147C18.7328 7.91051 18.9344 8.06053 18.9662 8.27802C19.0225 8.66934 19.0495 9.07732 19.0495 9.525C19.0495 14.7772 14.7768 19.05 9.52451 19.05Z" fill="#6BA10F"/>
<path d="M9.52446 15.8749C9.47208 15.8749 9.41969 15.8646 9.37048 15.8432C9.18156 15.7646 4.76196 13.854 4.76196 9.95036V6.63327C4.76196 6.46341 4.87071 6.31181 5.03184 6.25704L9.39746 4.78304C9.48001 4.75526 9.56891 4.75526 9.65146 4.78304L14.0171 6.25704C14.1782 6.31181 14.287 6.46341 14.287 6.63327V9.95036C14.287 13.854 9.86736 15.7646 9.67845 15.8439C9.62924 15.8646 9.57685 15.8749 9.52446 15.8749ZM5.55571 6.91823V9.95036C5.55571 12.9547 8.77437 14.6795 9.52446 15.0415C10.2738 14.6787 13.4932 12.9476 13.4932 9.95036V6.91823L9.52446 5.57838L5.55571 6.91823Z" fill="#6BA10F"/>
<path d="M9.12761 11.9063C9.12046 11.9063 9.11253 11.9063 9.10538 11.9055C8.99267 11.8992 8.88789 11.8452 8.81725 11.7571L7.22975 9.7727C7.09323 9.60125 7.12101 9.35201 7.29166 9.2147C7.46391 9.07817 7.71235 9.10595 7.84967 9.27661L9.16015 10.9149L11.6247 8.45031C11.7795 8.29553 12.0311 8.29553 12.1859 8.45031C12.3407 8.6051 12.3407 8.85671 12.1859 9.0115L9.4078 11.7896C9.33398 11.865 9.23238 11.9063 9.12761 11.9063Z" fill="#6BA10F"/>
</g>
<defs>
<clipPath id="clip0_1_496">
<rect width="19.05" height="19.05" fill="white" transform="translate(-0.000488281)"/>
</clipPath>
</defs>
</svg>
