<svg width="20" height="20" viewBox="0 0 20 20" fill="none" xmlns="http://www.w3.org/2000/svg">
<g clip-path="url(#clip0_1_533)">
<path d="M18.7948 3.56374C18.5717 3.45484 18.3007 3.54781 18.1918 3.7736L17.7509 4.68206L17.3976 4.51204L17.8624 3.55575C17.8624 3.55311 17.8651 3.55046 17.8651 3.54776C17.8677 3.54247 17.8704 3.53448 17.8731 3.52919C17.9448 3.35123 18.0272 3.14137 18.0564 2.90495C18.1467 2.20101 17.8784 1.45723 17.3365 0.912681C16.8212 0.394692 16.0322 0.102493 15.2831 0.14763C15.1264 0.158266 14.9591 0.187475 14.7864 0.237956C14.5128 0.317647 14.2445 0.455757 13.9921 0.649691C13.8115 0.787801 13.5591 1.02423 13.3865 1.35627C13.3865 1.35892 13.3838 1.36156 13.3838 1.36426C13.3838 1.36696 13.3812 1.36955 13.3812 1.36955L11.7342 4.76704C11.7263 4.78032 11.7183 4.7936 11.7103 4.80953C11.7023 4.82281 11.697 4.83874 11.6918 4.85467L7.42561 13.6473C7.36185 13.7801 7.32999 13.9288 7.33528 14.0776V14.0802L7.4309 16.9145C7.44154 17.1908 7.54515 17.4484 7.71781 17.6503L7.46546 18.1603C7.35391 18.3834 7.44688 18.6544 7.66997 18.766C7.73374 18.7978 7.80279 18.8138 7.8692 18.8138C8.03657 18.8138 8.19595 18.7208 8.27564 18.5615L8.52001 18.0647C8.55721 18.0674 8.59171 18.07 8.62891 18.07C8.87861 18.07 9.12563 17.993 9.33284 17.8389L11.6226 16.1602C11.6704 16.1256 11.7156 16.0831 11.7554 16.0406C11.7634 16.0326 11.7687 16.0247 11.7767 16.0167C11.8272 15.9583 11.8697 15.8919 11.9042 15.8228L17.0018 5.32218L17.3551 5.49219L15.0839 10.17C14.975 10.3932 15.068 10.6641 15.2938 10.773C15.3575 10.8048 15.4239 10.8181 15.4903 10.8181C15.6577 10.8181 15.8197 10.7252 15.8968 10.5631L18.3353 5.53998C18.3486 5.5214 18.3619 5.50013 18.3725 5.47886C18.3832 5.45759 18.3885 5.43901 18.3965 5.41774L19.0048 4.16396C19.1136 3.94357 19.0179 3.67264 18.7948 3.56374ZM8.79633 17.1138C8.71399 17.1722 8.61039 17.1855 8.51741 17.151C8.50413 17.143 8.49085 17.1351 8.47492 17.1271C8.46693 17.1244 8.46164 17.1218 8.45365 17.1191C8.37661 17.066 8.32882 16.981 8.32612 16.888L8.26236 15.0418C8.86004 15.5067 9.54805 15.8414 10.2812 16.0273L8.79633 17.1138ZM11.1711 15.2623C10.0846 15.1561 9.0699 14.662 8.31549 13.8704L12.3213 5.61443L15.1822 6.99838L11.1711 15.2623ZM17.1585 2.79075C17.1426 2.91558 17.0921 3.0484 17.0416 3.17328L15.5806 6.18295L12.717 4.799L14.1833 1.77605C14.263 1.62995 14.3879 1.48385 14.5419 1.36696C14.7013 1.24478 14.8713 1.15445 15.0334 1.10662C15.1423 1.07476 15.2459 1.05613 15.3336 1.05084C15.825 1.02163 16.3589 1.21821 16.6936 1.5529C17.0337 1.89289 17.2116 2.36838 17.1585 2.79075Z" fill="#6BA10F"/>
<path d="M6.04965 18.0038C5.93541 18.0011 5.80259 18.0038 5.66448 18.0038C4.94197 18.0117 3.59517 18.025 3.16486 17.5442C3.09046 17.4618 2.99485 17.3131 3.0294 17.0049C3.13036 16.1363 3.61909 15.2225 4.04945 14.4176L4.12115 14.2822C4.26196 14.0192 4.40806 13.7535 4.55146 13.4932C4.96319 12.7495 5.38821 11.9791 5.72555 11.1689C5.97525 10.5713 6.11336 10.0081 6.13728 9.50072C6.16914 8.82071 5.99917 8.22832 5.63257 7.73954C5.19427 7.1525 4.5541 6.72214 3.67751 6.41935C2.94966 6.167 2.14746 6.03683 1.44088 5.91994C1.12212 5.86681 0.819281 5.81898 0.540364 5.76056C0.296 5.71008 0.0569279 5.86946 0.00909278 6.11387C-0.0413883 6.35824 0.117993 6.59731 0.362409 6.64514C0.659899 6.70626 0.970724 6.75669 1.29742 6.80982C2.63888 7.03032 4.16099 7.27733 4.91007 8.2788C5.35366 8.87119 5.34836 9.72651 4.89149 10.8209C4.57273 11.586 4.16099 12.3324 3.7599 13.0549C3.61644 13.3152 3.4677 13.5862 3.32424 13.8544L3.25254 13.9873C2.78239 14.8639 2.25112 15.8573 2.13158 16.896C2.07316 17.3927 2.19534 17.8124 2.49284 18.1445C3.11708 18.8378 4.35228 18.9068 5.31122 18.9068C5.43604 18.9068 5.55828 18.9068 5.67247 18.9042C5.80793 18.9042 5.93281 18.9015 6.03907 18.9042C6.04171 18.9042 6.04171 18.9042 6.04436 18.9042C6.29142 18.9042 6.49329 18.7049 6.49594 18.4579C6.49859 18.2136 6.29931 18.0064 6.04965 18.0038Z" fill="#6BA10F"/>
</g>
<defs>
<clipPath id="clip0_1_533">
<rect width="19.05" height="19.05" fill="white" transform="translate(-0.000244141)"/>
</clipPath>
</defs>
</svg>
