<svg width="20" height="20" viewBox="0 0 20 20" fill="none" xmlns="http://www.w3.org/2000/svg">
<path fill-rule="evenodd" clip-rule="evenodd" d="M1.78564 3.57183C1.78564 2.58548 2.58524 1.78589 3.57158 1.78589H15.4778C16.4642 1.78589 17.2638 2.58549 17.2638 3.57183V9.52495C17.2638 9.85372 16.9972 10.1203 16.6685 10.1203C16.3397 10.1203 16.0731 9.85372 16.0731 9.52495V3.57183C16.0731 3.24304 15.8066 2.97651 15.4778 2.97651H3.57158C3.2428 2.97651 2.97627 3.24305 2.97627 3.57183V15.4781C2.97627 15.8068 3.24279 16.0734 3.57158 16.0734H9.52471C9.85348 16.0734 10.12 16.3399 10.12 16.6687C10.12 16.9975 9.85348 17.264 9.52471 17.264H3.57158C2.58524 17.264 1.78564 16.4645 1.78564 15.4781V3.57183Z" fill="#6BA10F"/>
<path fill-rule="evenodd" clip-rule="evenodd" d="M12.6997 10.914C11.7134 10.914 10.9138 11.7136 10.9138 12.7C10.9138 13.6863 11.7134 14.4859 12.6997 14.4859C13.686 14.4859 14.4856 13.6863 14.4856 12.7C14.4856 11.7136 13.686 10.914 12.6997 10.914ZM9.72314 12.7C9.72314 11.056 11.0558 9.72339 12.6997 9.72339C14.3436 9.72339 15.6763 11.056 15.6763 12.7C15.6763 14.3439 14.3436 15.6765 12.6997 15.6765C11.0558 15.6765 9.72314 14.3439 9.72314 12.7Z" fill="#6BA10F"/>
<path fill-rule="evenodd" clip-rule="evenodd" d="M14.2194 13.9156C14.4247 13.6588 14.7993 13.6172 15.056 13.8226L17.0404 15.4101C17.2972 15.6155 17.3388 15.9902 17.1334 16.2469C16.928 16.5036 16.5535 16.5452 16.2967 16.3398L14.3123 14.7523C14.0556 14.547 14.0139 14.1723 14.2194 13.9156Z" fill="#6BA10F"/>
<path fill-rule="evenodd" clip-rule="evenodd" d="M4.96069 6.34995C4.96069 6.02117 5.22723 5.75464 5.55601 5.75464H13.4935C13.8223 5.75464 14.0888 6.02117 14.0888 6.34995C14.0888 6.67873 13.8223 6.94526 13.4935 6.94526H5.55601C5.22723 6.94526 4.96069 6.67873 4.96069 6.34995Z" fill="#6BA10F"/>
<path fill-rule="evenodd" clip-rule="evenodd" d="M4.96069 9.525C4.96069 9.19623 5.22723 8.92969 5.55601 8.92969H8.73101C9.05978 8.92969 9.32632 9.19623 9.32632 9.525C9.32632 9.85377 9.05978 10.1203 8.73101 10.1203H5.55601C5.22723 10.1203 4.96069 9.85377 4.96069 9.525Z" fill="#6BA10F"/>
</svg>
