<svg width="39" height="52" viewBox="0 0 39 52" fill="none" xmlns="http://www.w3.org/2000/svg">
<path d="M38.1205 0.478516L32.5493 6.63625H14.3692C13.7828 6.63625 12.3167 6.63625 12.3167 7.80915C12.3167 8.98205 12.8484 9.50288 14.3692 9.56851H24.3389C19.6473 10.7414 24.3389 16.7037 27.2712 19.5382C33.3703 25.6373 30.7899 34.1994 28.7373 37.7182C31.0831 26.4583 17.7902 18.7562 10.8505 16.3127C3.81312 13.0286 4.00861 9.0798 4.98603 7.51593C3.57854 9.15799 3.42216 11.5233 3.5199 12.5008C3.5199 16.254 12.1212 20.9066 16.4218 22.7637C26.0396 26.9861 26.4892 35.6656 25.5118 39.4775C23.166 48.6261 13.0009 50.9133 8.21151 50.9133C18.533 47.16 21.3089 40.1617 21.4067 37.1317C21.8758 30.5634 16.3241 26.9665 13.4896 25.9891C5.74841 24.1125 2.05379 19.5382 1.17413 17.4856C-1.17168 11.1519 5.67025 3.50851 9.38444 0.478516H38.1205Z" fill="#DDFF8F" stroke="#DDFF8F" stroke-width="0.586451"/>
</svg>
