<svg width="252" height="253" viewBox="0 0 252 253" fill="none" xmlns="http://www.w3.org/2000/svg">
<path fill-rule="evenodd" clip-rule="evenodd" d="M84.163 31.021C91.3068 52.1345 95.9258 62.6084 101.697 73.0734C102.702 74.8947 105.38 74.108 105.221 72.0341C104.612 64.0905 103.331 56.7496 99.6525 43.4899C99.2192 41.7735 87.6571 6.34816 85.6525 1.98988C83.6478 -2.3684 73.6514 -0.00971123 78.1525 13.4899C82.4418 26.3543 84.0048 30.5924 84.1424 30.9627C84.1499 30.9829 84.1561 31.0006 84.163 31.021ZM127.445 38.2978C127.131 49.1778 127.795 55.2169 129.333 62.2544C129.691 63.8885 131.796 64.336 132.597 62.8677C133.87 60.5335 134.698 57.6823 135.375 52.3522C135.506 51.5922 136.013 40.0689 136.012 31.5295C136.01 22.9902 127.891 22.6618 127.646 29.3984C127.422 35.5472 127.441 37.8424 127.446 38.1961C127.447 38.2301 127.446 38.2638 127.445 38.2978ZM193.079 88.3812C193.825 85.3602 195.831 82.1271 203.099 76.5311C203.124 76.5121 203.148 76.4924 203.172 76.4723C203.182 76.4641 203.191 76.4559 203.201 76.4476C203.492 76.1905 205.105 74.7642 208.152 71.9902C211.538 68.9087 218.282 74.4529 214.154 78.49C210.545 82.0208 204.786 85.6445 203.106 86.7016L203.104 86.7024C202.864 86.8535 202.708 86.9521 202.653 86.9902C199.512 89.3845 197.362 90.1375 195.262 90.556C193.961 90.8155 192.761 89.6696 193.079 88.3812ZM57.4434 72.019C64.0333 78.4001 67.5229 79.9167 70.6201 80.2168C71.9409 80.3448 72.9009 78.9915 72.4556 77.7414C71.7374 75.7248 70.6809 73.7068 67.8568 70.9454C67.8111 70.8968 67.6906 70.7557 67.5056 70.5392C66.2162 69.0299 61.7965 63.8564 57.7802 60.7966C53.1878 57.2978 48.6789 64.7734 52.2184 67.677C55.4047 70.2907 57.0495 71.6795 57.3461 71.9306C57.3794 71.9589 57.4121 71.9886 57.4434 72.019ZM157.909 65.1749C161.523 54.4766 165.138 46.4467 174.08 32.6974C174.089 32.6826 174.098 32.668 174.107 32.6533L174.121 32.6312L174.133 32.6117C174.347 32.2479 175.998 29.4763 180.883 22.0863C186.15 14.1172 195.335 21.2094 189.022 31.5685C182.708 41.9277 173.596 55.487 172.882 56.3008C167.428 63.1132 164.18 65.7608 160.387 67.5215C158.89 68.2167 157.381 66.739 157.909 65.1749ZM6.90458 84.6938C3.17735 92.6143 20.8919 95.1808 47.4824 99.0333C50.1113 99.4142 52.8269 99.8076 55.6172 100.22C56.6051 100.366 57.4997 99.602 57.4997 98.6033C57.4997 97.9364 57.081 97.3309 56.4623 97.0821C23.8861 83.9854 10.9826 80.0196 7.13362 84.3414C7.04202 84.4443 6.96322 84.5692 6.90458 84.6938ZM212.342 115.999C234.461 100.746 249.197 90.5847 251.848 98.9271C251.89 99.0584 251.917 99.2035 251.92 99.3412C252.036 105.127 239.877 110.992 207.083 123.535C206.461 123.773 205.742 123.614 205.288 123.125C204.61 122.392 204.746 121.224 205.57 120.659C207.895 119.066 210.152 117.509 212.337 116.002L212.342 115.999ZM12.9207 126.159C13.863 132.721 23.0434 130.699 36.8225 127.663C37.9794 127.408 39.1688 127.146 40.3885 126.881C41.2221 126.7 41.6743 125.792 41.313 125.019C41.119 124.604 40.7158 124.318 40.2611 124.263C20.6508 121.92 13.2708 121.876 12.9098 125.83C12.9 125.937 12.9054 126.053 12.9207 126.159ZM40.0746 163.497C16.0498 169.051 0.026202 172.755 0.981958 165.677C1.00132 165.534 1.04302 165.385 1.10681 165.255C3.29285 160.806 15.5952 159.688 47.3849 159.17C47.9377 159.161 48.4483 159.503 48.6392 160.021C48.9101 160.758 48.4654 161.567 47.7001 161.741C45.0813 162.339 42.5369 162.928 40.0763 163.496L40.0751 163.497L40.0746 163.497ZM25.5253 207.583C29.9134 212.562 36.5373 205.678 46.4787 195.346C47.3209 194.471 48.187 193.571 49.0775 192.651C49.6694 192.04 49.5441 191.036 48.8183 190.592C48.4247 190.351 47.926 190.336 47.5152 190.546C29.7152 199.652 23.4742 203.784 25.3341 207.31C25.3849 207.406 25.4533 207.501 25.5253 207.583ZM61.1489 227.344C48.3006 245.007 39.7353 256.782 35.1641 251.05C35.0798 250.944 35.0044 250.821 34.9547 250.695C33.1888 246.224 41.02 238.457 63.0295 220.113C63.4591 219.755 64.071 219.682 64.5673 219.94C65.3238 220.333 65.5482 221.312 65.0448 222C63.7049 223.83 62.4064 225.616 61.1489 227.344Z" fill="#EFFAF8"/>
</svg>
