<svg width="278" height="209" viewBox="0 0 278 209" fill="none" xmlns="http://www.w3.org/2000/svg">
<path fill-rule="evenodd" clip-rule="evenodd" d="M206.822 31.4533C194.022 49.7007 188.308 59.6198 183.283 70.4628C182.408 72.35 184.626 74.0442 186.205 72.6895C192.25 67.5007 197.412 62.1262 205.929 51.3177C207.056 49.9532 228.784 19.6787 231.113 15.4847C233.441 11.2906 225.627 4.62482 217.404 16.2383C209.567 27.3054 207.074 31.0722 206.857 31.4022C206.845 31.4201 206.834 31.4357 206.822 31.4533ZM226.553 70.6582C217.593 76.8392 213.117 80.9467 208.351 86.3492C207.245 87.6035 208.129 89.5655 209.787 89.343C212.422 88.9894 215.211 87.9708 219.909 85.3645C220.6 85.0208 230.192 78.6144 237.076 73.5627C243.961 68.5111 239.424 61.7702 233.847 65.5567C228.757 69.0127 226.917 70.3854 226.635 70.5986C226.608 70.6191 226.581 70.6389 226.553 70.6582ZM224.984 153.203C227.861 152.018 231.655 151.723 240.466 154.275C240.496 154.283 240.526 154.291 240.557 154.299C240.569 154.302 240.581 154.304 240.593 154.307C240.973 154.39 243.077 154.847 247.116 155.664C251.603 156.571 251.121 165.288 245.425 164.348C240.443 163.525 234.115 161.024 232.269 160.295L232.267 160.294C232.003 160.19 231.831 160.122 231.768 160.1C227.98 158.983 226.101 157.695 224.522 156.25C223.543 155.354 223.757 153.709 224.984 153.203ZM157.96 34.1547C156.712 43.2424 157.553 46.9533 159.143 49.6283C159.821 50.769 161.48 50.7427 162.225 49.6444C163.426 47.8726 164.428 45.8272 164.985 41.9168C164.997 41.8511 165.039 41.6705 165.105 41.3933C165.559 39.4609 167.117 32.8373 167.209 27.7891C167.314 22.0167 158.619 22.8022 158.371 27.3735C158.148 31.4886 158.001 33.6363 157.974 34.024C157.971 34.0675 157.966 34.1115 157.96 34.1547ZM222.897 111.119C233.661 107.706 242.274 105.871 258.649 104.95C258.667 104.949 258.684 104.948 258.701 104.946L258.727 104.944L258.749 104.942C259.169 104.9 262.381 104.592 271.229 104.16C280.77 103.694 280.484 115.296 268.396 116.331C256.309 117.366 239.986 118.038 238.908 117.944C230.189 117.575 226.133 116.522 222.47 114.505C221.024 113.709 221.323 111.618 222.897 111.119ZM117.85 0.89826C109.259 2.57711 117.666 18.3794 130.286 42.0994C131.534 44.4445 132.822 46.867 134.14 49.3608C134.607 50.2439 135.752 50.5133 136.557 49.9226C137.095 49.5282 137.335 48.8325 137.17 48.1864C128.465 14.1725 124.031 1.42216 118.27 0.874535C118.133 0.861503 117.985 0.871845 117.85 0.89826ZM214.107 185.07C239.488 193.885 256.397 199.758 251.238 206.83C251.157 206.941 251.056 207.049 250.946 207.132C246.349 210.648 234.429 204.311 204.92 185.286C204.36 184.925 204.063 184.251 204.19 183.596C204.379 182.616 205.402 182.035 206.344 182.365C209.004 183.297 211.594 184.197 214.101 185.068L214.107 185.07ZM87.972 30.2729C83.2378 34.9138 90.2984 41.1202 100.896 50.4356C101.786 51.2178 102.7 52.0219 103.635 52.8488C104.274 53.414 105.274 53.2415 105.683 52.4932C105.903 52.0914 105.896 51.5968 105.671 51.198C95.9618 33.9993 91.6327 28.0223 88.2311 30.0694C88.1388 30.125 88.0489 30.1975 87.972 30.2729ZM73.9238 74.2512C55.2367 58.163 42.7732 47.4329 49.0451 44.018C49.1722 43.9488 49.3169 43.8944 49.4594 43.869C54.3398 43.0005 62.5174 52.2593 81.7362 77.587C82.0704 78.0274 82.097 78.6411 81.7914 79.1019C81.3576 79.7561 80.4426 79.8756 79.8491 79.3619C77.8181 77.6039 75.839 75.9 73.9251 74.2523L73.9241 74.2515L73.9238 74.2512ZM29.7699 88.5925C28.3497 95.076 37.8182 96.3458 52.0292 98.2515C53.2332 98.413 54.4712 98.579 55.7395 98.7532C56.5825 98.8689 57.3175 98.1744 57.2464 97.3264C57.2079 96.8666 56.925 96.4556 56.5125 96.2487C38.6425 87.281 31.6202 84.6917 29.8768 88.2769C29.8292 88.3749 29.7932 88.486 29.7699 88.5925ZM34.9034 129.005C13.0621 129.091 -1.49836 129.148 0.419971 122.072C0.455366 121.942 0.510362 121.808 0.582431 121.694C3.14331 117.625 14.0376 119.347 41.8467 126.245C42.3895 126.38 42.81 126.83 42.8958 127.383C43.0264 128.225 42.3694 128.985 41.5171 128.986C39.2485 128.988 37.0411 128.997 34.9034 129.005Z" fill="#EFF2FA"/>
</svg>
