<svg width="21" height="21" viewBox="0 0 21 21" fill="none" xmlns="http://www.w3.org/2000/svg">
<g clip-path="url(#clip0_1_2947)">
<path d="M7.54711 9.10545C9.39124 9.10545 10.8862 7.61048 10.8862 5.76635C10.8862 3.92221 9.39124 2.42725 7.54711 2.42725C5.70297 2.42725 4.20801 3.92221 4.20801 5.76635C4.20801 7.61048 5.70297 9.10545 7.54711 9.10545Z" stroke="#2F70F2" stroke-width="1.5026"/>
<path d="M12.5562 8.27061C13.2203 8.27061 13.8573 8.00677 14.327 7.53711C14.7966 7.06746 15.0605 6.43048 15.0605 5.76629C15.0605 5.1021 14.7966 4.46512 14.327 3.99546C13.8573 3.52581 13.2203 3.26196 12.5562 3.26196" stroke="#2F70F2" stroke-width="1.5026" stroke-linecap="round"/>
<path d="M7.54753 18.2881C10.7748 18.2881 13.391 16.7931 13.391 14.949C13.391 13.1048 10.7748 11.6099 7.54753 11.6099C4.32029 11.6099 1.7041 13.1048 1.7041 14.949C1.7041 16.7931 4.32029 18.2881 7.54753 18.2881Z" stroke="#2F70F2" stroke-width="1.5026"/>
<path d="M15.0601 12.4446C16.5243 12.766 17.5644 13.579 17.5644 14.5315C17.5644 15.3913 16.7179 16.1368 15.4774 16.5099" stroke="#2F70F2" stroke-width="1.5026" stroke-linecap="round"/>
</g>
<defs>
<clipPath id="clip0_1_2947">
<rect width="20.0346" height="20.0346" fill="white" transform="translate(0.034668 0.75769)"/>
</clipPath>
</defs>
</svg>
