<svg width="48" height="48" viewBox="0 0 48 48" fill="none" xmlns="http://www.w3.org/2000/svg">
<g clip-path="url(#clip0_1_6219)">
<path d="M23.9968 14.0001V24.0001L27.9968 28.0001" stroke="black" stroke-width="3" stroke-linecap="round" stroke-linejoin="round"/>
<path d="M33.9978 43.9998L43.9978 37.9998L33.9978 31.9998V43.9998Z" stroke="black" stroke-width="3" stroke-linecap="round" stroke-linejoin="round"/>
<path d="M26.0359 41.8861C22.2717 42.3139 18.4684 41.5432 15.1677 39.6835C11.867 37.8239 9.23725 34.9703 7.65287 31.529C6.06849 28.0877 5.6103 24.2343 6.34355 20.5174C7.0768 16.8005 8.9641 13.4098 11.7367 10.828C14.5093 8.24629 18.0258 6.60517 21.7854 6.13839C25.545 5.67161 29.3561 6.40297 32.6758 8.22832C35.9956 10.0537 38.6548 12.8799 40.2747 16.3046C41.8946 19.7293 42.3927 23.5778 41.6979 27.3021" stroke="black" stroke-width="3" stroke-linecap="round" stroke-linejoin="round"/>
</g>
<defs>
<clipPath id="clip0_1_6219">
<rect width="48" height="48" fill="white"/>
</clipPath>
</defs>
</svg>
