<svg width="19" height="19" viewBox="0 0 19 19" fill="none" xmlns="http://www.w3.org/2000/svg">
<path d="M4.09929 14.3946C3.95218 14.3946 3.80506 14.3404 3.68892 14.2243C3.46437 13.9997 3.46437 13.6281 3.68892 13.4035L14.529 2.56343C14.7536 2.33888 15.1252 2.33888 15.3498 2.56343C15.5743 2.78797 15.5743 3.15963 15.3498 3.38418L4.50967 14.2243C4.39352 14.3404 4.24641 14.3946 4.09929 14.3946Z" fill="#6BA10F"/>
<path d="M12.051 14.3947H4.09903C3.78157 14.3947 3.51831 14.1314 3.51831 13.814V5.86197C3.51831 5.54451 3.78157 5.28125 4.09903 5.28125C4.41649 5.28125 4.67975 5.54451 4.67975 5.86197V13.2332H12.051C12.3685 13.2332 12.6317 13.4965 12.6317 13.814C12.6317 14.1314 12.3685 14.3947 12.051 14.3947Z" fill="#6BA10F"/>
<path d="M16.1009 17.8792H2.9379C2.62044 17.8792 2.35718 17.616 2.35718 17.2985C2.35718 16.981 2.62044 16.7178 2.9379 16.7178H16.1009C16.4183 16.7178 16.6816 16.981 16.6816 17.2985C16.6816 17.616 16.4183 17.8792 16.1009 17.8792Z" fill="#6BA10F"/>
</svg>
