<svg width="15" height="15" viewBox="0 0 15 15" fill="none" xmlns="http://www.w3.org/2000/svg">
<path d="M2.25626 14.1772H12.7866C13.0406 14.1772 13.2512 13.9666 13.2512 13.7126C13.2512 13.4587 13.0406 13.248 12.7866 13.248H2.25626C2.0023 13.248 1.79169 13.4587 1.79169 13.7126C1.79169 13.9666 2.0023 14.1772 2.25626 14.1772Z" fill="#6BA10F"/>
<path d="M3.18472 11.3892C3.30241 11.3892 3.4201 11.3459 3.51302 11.253L12.1851 2.58088C12.3647 2.40124 12.3647 2.10391 12.1851 1.92428C12.0055 1.74464 11.7081 1.74464 11.5285 1.92428L2.85642 10.5964C2.67679 10.776 2.67679 11.0733 2.85642 11.253C2.94934 11.3459 3.06703 11.3892 3.18472 11.3892Z" fill="#6BA10F"/>
<path d="M11.8574 9.07931C12.1114 9.07931 12.322 8.86871 12.322 8.61474V2.25315C12.322 1.99918 12.1114 1.78857 11.8574 1.78857H5.49586C5.24189 1.78857 5.03128 1.99918 5.03128 2.25315C5.03128 2.50712 5.24189 2.71773 5.49586 2.71773H11.3929V8.61474C11.3929 8.86871 11.6035 9.07931 11.8574 9.07931Z" fill="#6BA10F"/>
</svg>
