<svg width="21" height="21" viewBox="0 0 21 21" fill="none" xmlns="http://www.w3.org/2000/svg">
<path d="M5.35645 8.65582H8.69555" stroke="#121212" stroke-width="1.5026" stroke-linecap="round" stroke-linejoin="round"/>
<path d="M17.7391 9.4906H15.567C14.077 9.4906 12.8699 10.6117 12.8699 11.9949C12.8699 13.3781 14.0778 14.4993 15.5662 14.4993H17.7391C17.8092 14.4993 17.8435 14.4993 17.8727 14.4976C18.3235 14.47 18.6824 14.137 18.7116 13.7187C18.7133 13.692 18.7133 13.6595 18.7133 13.5952V10.3947C18.7133 10.3304 18.7133 10.2978 18.7116 10.2711C18.6816 9.85289 18.3235 9.51982 17.8727 9.49227C17.8435 9.4906 17.8092 9.4906 17.7391 9.4906Z" stroke="#121212" stroke-width="1.5026"/>
<path d="M17.8496 9.49059C17.7845 7.92789 17.5758 6.96957 16.9004 6.29507C15.9229 5.31671 14.3485 5.31671 11.2006 5.31671H8.69627C5.54833 5.31671 3.97394 5.31671 2.99642 6.29507C2.01807 7.27259 2.01807 8.84698 2.01807 11.9949C2.01807 15.1428 2.01807 16.7172 2.99642 17.6948C3.97394 18.6731 5.54833 18.6731 8.69627 18.6731H11.2006C14.3485 18.6731 15.9229 18.6731 16.9004 17.6948C17.5758 17.0203 17.7853 16.0619 17.8496 14.4992" stroke="#121212" stroke-width="1.5026"/>
<path d="M5.35645 5.31671L8.47433 3.24898C8.91281 2.96377 9.42464 2.81195 9.94771 2.81195C10.4708 2.81195 10.9826 2.96377 11.4211 3.24898L14.539 5.31671" stroke="#121212" stroke-width="1.5026" stroke-linecap="round"/>
<path d="M15.3669 11.9949H15.3753" stroke="#121212" stroke-width="2.00346" stroke-linecap="round" stroke-linejoin="round"/>
</svg>
