<svg width="21" height="21" viewBox="0 0 21 21" fill="none" xmlns="http://www.w3.org/2000/svg">
<path d="M3.91016 15.6488V5.63153M17.2666 5.63153V15.6488" stroke="#121212" stroke-width="1.5026" stroke-linecap="round"/>
<path d="M17.2666 10.6402C17.2666 12.485 14.2764 13.9793 10.5884 13.9793C6.90032 13.9793 3.91016 12.485 3.91016 10.6402M17.2666 15.6488C17.2666 17.4937 14.2764 18.9879 10.5884 18.9879C6.90032 18.9879 3.91016 17.4937 3.91016 15.6488M10.5884 8.97062C14.2764 8.97062 17.2666 7.47637 17.2666 5.63152C17.2666 3.78667 14.2764 2.29242 10.5884 2.29242C6.90032 2.29242 3.91016 3.78667 3.91016 5.63152C3.91016 7.47637 6.90032 8.97062 10.5884 8.97062Z" stroke="#121212" stroke-width="1.5026"/>
</svg>
